<svg xmlns="http://www.w3.org/2000/svg" viewBox="0 0 130 40" fill="#ffffff">
  <!-- Beaches Resorts Logo -->
  <g transform="translate(0, 8)">
    <!-- Wave + sun icon -->
    <path d="M0 18c2-2 4-2 6 0s4 2 6 0 4-2 6 0 4 2 6 0v4c-2 2-4 2-6 0s-4-2-6 0-4 2-6 0-4-2-6 0v-4z"/>
    <circle cx="18" cy="8" r="5"/>
    <path d="M18 0v2m0 12v2m-8-7h2m12 0h2m-5.5-5.5l1.5 1.5m-9 9l1.5 1.5m0-12l-1.5 1.5m9 9l-1.5 1.5" stroke="#ffffff" stroke-width="1.5" fill="none"/>
  </g>
  <!-- Wordmark -->
  <text x="32" y="26" font-family="'Playfair Display', 'Georgia', serif" font-size="18" font-weight="400" letter-spacing="3">BEACHES</text>
</svg>