<svg xmlns="http://www.w3.org/2000/svg" viewBox="0 0 164 43.188" fill="#ffffff">
  <!-- Official Beaches Resorts Logo -->
  <path d="M42.686,25.306a1.866,1.866,0,0,1,.369,1.074c0,2.37-1.893,3.771-5.886,4.368a16.5,16.5,0,0,1,5.517-5.442m86.609-.024a1.8,1.8,0,0,1,.315.99c0,2.325-2.432,4.159-6.365,4.84a17.22,17.22,0,0,1,6.05-5.831M35.374,13.974c2.333-2.333,3.29-4.286,3.29-6.708C38.664,2.991,34.347,0,24.232,0,10.272,0,0,7.216,0,12.136c0,1.987,1.5,3.047,4.625,3.047a6.91,6.91,0,0,0,3.852-1.125c-.959-3.682,5.8-9.694,15.119-9.694,5.008,0,6.851,1.722,6.851,4,0,3.024-2.4,7.366-10.282,12.849-2.67,1.857-3.265,2.692-3.265,4.035,0,2.474,3.956,5.767,3.956,9.076,0,1.936-2.039,3.165-5.5,3.165a12.712,12.712,0,0,1-4.426-.691c1.558-7.089,6.993-21.026,9.109-24.384-.073-.575-.906-1.044-2.41-1.044-3.212,0-5.315,1.106-6.359,3.55C8.816,20.661,4.931,32.346,3.761,38.4c-.582,3.009,1.688,4.793,6.869,4.793,8.733,0,17.511-5.783,17.511-11.018,0-3.637-4.271-6.663-4.271-8.637,0-1.834,6.921-4.976,11.5-9.559M147.381,34.089c.153-3.5-.631-8.409.88-11.794-.076-.359-.749-.559-1.664-.559a4.484,4.484,0,0,0-4.29,2.127,70.163,70.163,0,0,1-6.929,8.354c-4.217,4.217-7.3,5.941-10,5.941a3.261,3.261,0,0,1-3.368-3.418,4.7,4.7,0,0,1,.144-1.1c7.357-.4,11.97-4.39,11.97-7.662,0-2.1-2.631-4.342-4.48-4.857a18.648,18.648,0,0,0-8.382,5.209c-3.3,3.3-4.913,7.9-7.024,7.9-1.711,0-3.473-2.932-4.464-10.739a2.213,2.213,0,0,0-1.061-.227c-1.445,0-1.983.4-2.737,1.7a90.751,90.751,0,0,1-7.613,11.718c.782-3.511,1.807-7.677,2.864-11.589,3.057-5.374,6.428-13.738,6.428-17.942A2.607,2.607,0,0,0,106.329,4.6,2.786,2.786,0,0,0,104,4.085c-2.856,2.729-6.18,13.157-8.586,22.889-6.512,8.436-11.384,11.19-14.231,11.19a3.371,3.371,0,0,1-3.228-3.532c0-2.23,2.854-6.4,7.183-8.783.39,1,.023,2.6-1.464,4.687a2.629,2.629,0,0,0,2.065.761c2.078,0,4.281-2.8,4.281-4.835,0-2.1-2.646-4.559-4.475-5.081A18.27,18.27,0,0,0,76.9,26.6c-4.225,4.225-6.272,9.366-8.14,9.366-1.177,0-1.915-1.311-1.865-5.58a4.42,4.42,0,0,0-1.693-.314,5.161,5.161,0,0,0-3.615,1.284,51.721,51.721,0,0,0-7.828,7.025c1.213-4.9,7.635-11.774,13.643-13.62.2-.554-.259-2.056-1.523-3.32-.82-.82-1.678-1.034-3.266-.4-3.414,1.371-5.728,3.522-10.639,8.432-5.793,5.794-10.5,8.73-12.817,8.73a3.258,3.258,0,0,1-3.365-3.418,5.555,5.555,0,0,1,.244-1.537c7.464-.271,11.533-3.85,11.533-7.162,0-2.1-2.778-4.469-4.61-4.989C37.235,22.7,30.132,30.228,30.132,35.428a7.066,7.066,0,0,0,7.318,7.144c2.9,0,7.549-2.924,12.4-7.941A13.471,13.471,0,0,0,48.7,39.6c0,1.8,3.175,3.6,4.414,3.571a44.566,44.566,0,0,1,9.057-7.832c.492,4.6,2.522,6.5,4.322,6.5,1.876,0,4.071-2.039,6.135-5.214a7.6,7.6,0,0,0,7.382,6.18c4.044,0,9.1-3.538,14.165-10.512A53.575,53.575,0,0,0,92.8,40c0,1.524,2.507,2.442,3.9,2.44,1.3,0,5.737-5.979,9.059-11.459.613,5.142,2.992,9.43,5.5,9.43,1.4,0,2.894-.894,5.179-3.967a7.335,7.335,0,0,0,7.429,6.077c4,0,7.463-1.6,12.872-7.008a41.529,41.529,0,0,0,5.413-6.775c-.313,2.291.431,5.892.059,7.232-2.885,1.453-4.794,2.967-5.395,3.868a2.471,2.471,0,0,0,2.528,2.528,8.233,8.233,0,0,0,7.4-5.044,17.727,17.727,0,0,1,4.462-.618c3.283,0,5.766,1.095,6.263,3.175.837.313,3.21-.55,5.083-2.424A4.068,4.068,0,0,0,164,34.784c0-1.358-1.464-2.524-5.05-2.524a38.009,38.009,0,0,0-11.569,1.828m6.664,6.361c0-.361-.243-.6-.706-.6h-.627v1.929h.259v-.729h.371l.455.729h.3l-.482-.766a.566.566,0,0,0,.427-.567m-.71.37h-.364v-.732h.364c.306,0,.443.148.443.363s-.138.37-.443.37m-.035-1.664a1.675,1.675,0,1,0,1.717,1.678,1.669,1.669,0,0,0-1.717-1.678m0,3.121a1.447,1.447,0,0,1,0-2.893,1.447,1.447,0,1,1,0,2.893"/>
</svg>