<svg xmlns="http://www.w3.org/2000/svg" viewBox="0 0 100 40" fill="#ffffff">
  <!-- Meta Logo - Infinity symbol -->
  <path d="M17.5 30c-4.5 0-8.2-2-10.7-5.5C4.2 21 2.5 16.5 2.5 11.5c0-4 1.1-7.2 3.2-9.5C7.8-.3 10.6-1 14-1c3 0 5.5 1 7.5 3 1.5 1.5 3.1 3.8 4.8 7l2 4 2-4c1.7-3.2 3.3-5.5 4.8-7 2-2 4.5-3 7.5-3 3.4 0 6.2.7 8.3 3 2.1 2.3 3.2 5.5 3.2 9.5 0 5-1.7 9.5-4.3 13-2.5 3.5-6.2 5.5-10.7 5.5-3.3 0-6-1.1-8.2-3.2-1.6-1.6-3.4-4.2-5.2-7.6l-1.2-2.4-1.2 2.4c-1.8 3.4-3.6 6-5.2 7.6-2.2 2.1-4.9 3.2-8.2 3.2zm24.2-6.6c2.6 0 4.9-1.4 6.8-4.2 2-3 3-6.4 3-10.5 0-2.5-.6-4.4-1.7-5.7s-2.5-2-4.2-2c-2 0-3.8.8-5.3 2.6-1.4 1.5-2.9 4-4.5 7.4l-1.8 3.6 1 2c1.6 3.1 3.1 5.4 4.5 6.8 1.3 1.3 2.8 2 4.2 2zm-24.2 0c1.4 0 2.9-.7 4.2-2 1.4-1.4 2.9-3.7 4.5-6.8l1-2-1.8-3.6c-1.6-3.4-3.1-5.9-4.5-7.4-1.5-1.8-3.3-2.6-5.3-2.6-1.7 0-3.1.7-4.2 2s-1.7 3.2-1.7 5.7c0 4.1 1 7.5 3 10.5 1.9 2.8 4.2 4.2 6.8 4.2z" transform="translate(2,5) scale(0.85)"/>
</svg>