<svg xmlns="http://www.w3.org/2000/svg" viewBox="0 0 130 40" fill="#ffffff">
  <!-- Sandals Resorts Logo -->
  <g transform="translate(0, 6)">
    <!-- Palm tree icon -->
    <path d="M14 28h2V16c3-1 5-3 6-6-2 1-4 1-6 0 1-2 1-4 0-6-1 2-3 4-6 4 1-2 1-5-1-7-2 2-4 5-3 8-3-1-6 0-7 2 2 2 5 2 7 1-1 3 0 6 2 8v8h2V16c.5 1 1.5 2 3 2.5V28h1z"/>
  </g>
  <!-- Wordmark -->
  <text x="32" y="26" font-family="'Playfair Display', 'Georgia', serif" font-size="18" font-weight="400" letter-spacing="3">SANDALS</text>
</svg>