<svg xmlns="http://www.w3.org/2000/svg" viewBox="0 0 62 62" fill="#ffffff">
  <!-- Starbucks Siren - Simplified monochrome version -->
  <circle cx="31" cy="31" r="30" fill="none" stroke="#ffffff" stroke-width="2"/>
  <path d="M31 8c-1.8 0-3.3.9-4.2 2.3-.3.5-.6 1.1-.7 1.7h-.1c-2.4 0-4.3 1.9-4.3 4.3 0 1.1.4 2.1 1.1 2.9-1.8 1.3-3 3.4-3 5.8 0 2.8 1.6 5.2 4 6.3l-2.8 10.4c-.3 1.1.5 2.3 1.7 2.3h16.6c1.2 0 2-1.2 1.7-2.3l-2.8-10.4c2.4-1.1 4-3.5 4-6.3 0-2.4-1.2-4.5-3-5.8.7-.8 1.1-1.8 1.1-2.9 0-2.4-1.9-4.3-4.3-4.3h-.1c-.1-.6-.4-1.2-.7-1.7-.9-1.4-2.4-2.3-4.2-2.3zm-6 40c-.7 0-1.2.4-1.2 1l1.2 4c.2.6.8.6 1 0l1.2-4c.2-.6-.3-1-1-1h-1.2zm12 0c-.7 0-1.2.4-1.2 1l1.2 4c.2.6.8.6 1 0l1.2-4c.2-.6-.3-1-1-1h-1.2z"/>
</svg>